<svg width="1100" height="1080" viewBox="0 0 1100 1080" fill="none" xmlns="http://www.w3.org/2000/svg">
<path d="M896.567 835.572V1051.51L709.244 943.006V727.067L896.567 835.572Z" fill="#2944AE" fill-opacity="0.5"/>
<path d="M837.725 801.489V1017.43L896.567 1051.51V835.572L837.725 801.489Z" fill="#213993" fill-opacity="0.5"/>
<path d="M896.567 835.572L1083.89 727.069V943.006L896.567 1051.51V835.572Z" fill="#5169CD" fill-opacity="0.5"/>
<path d="M1016.13 766.317V982.254L1083.89 943.006V727.069L1016.13 766.317Z" fill="#3351C5" fill-opacity="0.5"/>
<path d="M709.244 727.067L896.567 618.564L1083.89 727.069L896.567 835.572L709.244 727.067Z" fill="#6D81D5" fill-opacity="0.5"/>
<path d="M1083.89 727.06L1016.12 766.312L829.576 657.365L896.564 618.564L1083.89 727.06Z" fill="#5169CD" fill-opacity="0.5"/>
<path d="M203.433 835.572V1051.51L16.1133 943.006V727.067L203.433 835.572Z" fill="#2944AE" fill-opacity="0.5"/>
<path d="M144.594 801.489V1017.43L203.433 1051.51V835.572L144.594 801.489Z" fill="#213993" fill-opacity="0.5"/>
<path d="M203.433 835.572L390.756 727.069V943.006L203.433 1051.51V835.572Z" fill="#5169CD" fill-opacity="0.5"/>
<path d="M322.998 766.317V982.254L390.756 943.006V727.069L322.998 766.317Z" fill="#3351C5" fill-opacity="0.5"/>
<path d="M16.1133 727.067L203.433 618.564L390.756 727.069L203.433 835.572L16.1133 727.067Z" fill="#6D81D5" fill-opacity="0.5"/>
<path d="M390.756 727.06L322.994 766.312L136.445 657.365L203.433 618.564L390.756 727.06Z" fill="#5169CD" fill-opacity="0.5"/>
<path d="M550 237.496V453.436L362.68 344.931V128.991L550 237.496Z" fill="#FCA62F" fill-opacity="0.5"/>
<path d="M491.159 203.413V419.353L550 453.436V237.496L491.159 203.413Z" fill="#F98824" fill-opacity="0.5"/>
<path d="M550 237.496L737.32 128.994V344.933L550 453.436V237.496Z" fill="#FCC16D" fill-opacity="0.5"/>
<path d="M669.563 168.241V384.178L737.32 344.933V128.994L669.563 168.241Z" fill="#FCA62F" fill-opacity="0.5"/>
<path d="M362.68 128.991L550 20.4888L737.32 128.994L550 237.496L362.68 128.991Z" fill="#FFD496" fill-opacity="0.5"/>
<path d="M737.32 128.985L669.558 168.237L483.01 59.2896L549.998 20.4888L737.32 128.985Z" fill="#FCC16D" fill-opacity="0.5"/>
<path d="M1099.99 726.996C1099.96 721.466 1097.1 716.097 1091.96 713.126L904.643 604.621C899.65 601.727 893.486 601.727 888.491 604.621L852.109 625.695L843.036 610.188C831.574 590.478 808.736 581.407 787.613 586.417L782.5 577.566C788.313 571.477 792.55 564.003 794.765 555.637C798.222 542.576 796.387 528.953 789.574 517.236L772.808 488.58C761.346 468.866 738.513 459.791 717.385 464.807L712.274 455.956C718.087 449.867 722.324 442.395 724.539 434.029C727.996 420.968 726.161 407.345 719.348 395.625L709.88 379.443L745.396 358.872C750.37 355.991 753.433 350.678 753.433 344.929V289.905C753.433 281.006 746.221 273.792 737.32 273.792C728.419 273.792 721.207 281.006 721.207 289.905V335.641L566.113 425.48V246.784L721.207 156.949V211.943C721.207 220.841 728.419 228.056 737.32 228.056C746.221 228.056 753.433 220.841 753.433 211.943V128.994C753.433 128.972 753.421 128.944 753.421 128.923C753.39 123.393 750.529 118.024 745.396 115.052L558.076 6.54766C553.081 3.65371 546.919 3.65371 541.924 6.54766L354.604 115.05C349.476 118.022 346.614 123.388 346.582 128.916C346.582 128.94 346.567 128.97 346.567 128.994V344.931C346.567 350.68 349.628 355.993 354.604 358.874L389.338 378.992L379.582 395.668C372.79 407.347 370.954 420.973 374.413 434.033C376.628 442.399 380.864 449.871 386.678 455.962L381.567 464.812C360.443 459.797 337.61 468.864 326.163 488.547L309.356 517.279C302.564 528.957 300.728 542.583 304.187 555.643C306.402 564.007 310.638 571.482 316.452 577.57L311.341 586.422C290.215 581.405 267.384 590.472 255.937 610.156L247.109 625.244L211.512 604.625C206.516 601.732 200.355 601.732 195.357 604.625L8.0373 713.124C2.90898 716.095 0.0472656 721.462 0.0150391 726.99C0.0150391 727.013 0 727.043 0 727.067V943.007C0 948.756 3.06152 954.069 8.0373 956.95L195.357 1065.45H195.362C195.37 1065.46 195.379 1065.47 195.388 1065.47C197.88 1066.91 200.655 1067.62 203.436 1067.62C206.224 1067.62 209.015 1066.9 211.512 1065.45L398.832 956.952C403.805 954.071 406.869 948.758 406.869 943.009V909.141L426.039 909.265H426.194C439.645 909.265 452.302 904.045 461.847 894.555C467.498 888.937 471.644 882.214 474.115 874.875H485.543C492.345 894.692 511.118 909.01 533.184 909.076L566.427 909.263C566.483 909.265 566.558 909.263 566.625 909.263C580.078 909.263 592.732 904.043 602.278 894.553C607.928 888.935 612.075 882.212 614.543 874.873H625.971C632.771 894.69 651.546 909.008 673.6 909.074L693.133 909.201V943.004C693.133 948.754 696.197 954.067 701.171 956.948L734.613 976.318C737.157 977.792 739.933 978.492 742.674 978.492C748.234 978.492 753.644 975.609 756.632 970.451C761.093 962.751 758.467 952.892 750.765 948.431L725.36 933.715V755.018L880.453 844.855V1023.55L818.091 987.43C810.395 982.972 800.531 985.595 796.071 993.295C791.611 1001 794.237 1010.85 801.939 1015.31L888.491 1065.45H888.495C888.503 1065.45 888.512 1065.46 888.521 1065.47C891.011 1066.9 893.789 1067.62 896.567 1067.62C899.355 1067.62 902.146 1066.89 904.643 1065.45L1091.96 956.946C1096.94 954.065 1100 948.752 1100 943.002V727.063C1100 727.046 1099.99 727.02 1099.99 726.996V726.996ZM896.567 637.185L1051.74 727.067L896.567 816.949L741.391 727.065L896.567 637.185ZM815.199 626.426L824.222 641.847L791.104 661.031L782.091 645.626C780.373 642.67 779.55 639.366 779.625 636.031C782.695 639.211 786.9 640.96 791.209 640.96C793.942 640.96 796.714 640.262 799.253 638.796C806.377 634.682 809.16 625.951 806.023 618.565C809.744 620.028 813.029 622.696 815.199 626.426V626.426ZM744.971 504.818L761.737 533.473C763.907 537.203 764.676 541.481 763.974 545.685C759.178 539.128 750.118 537.102 742.923 541.257C736.459 544.989 733.58 552.522 735.438 559.401C732.705 557.848 730.323 555.589 728.628 552.674L711.85 523.999C710.138 521.045 709.32 517.749 709.395 514.419C712.465 517.601 716.672 519.35 720.981 519.35C723.714 519.35 726.486 518.651 729.025 517.186C736.151 513.072 738.931 504.339 735.793 496.954C739.518 498.417 742.801 501.088 744.971 504.818V504.818ZM691.511 411.865C693.681 415.595 694.45 419.875 693.748 424.077C688.952 417.52 679.894 415.496 672.697 419.649C666.233 423.381 663.354 430.913 665.212 437.795C662.479 436.242 660.099 433.981 658.402 431.066L648.873 414.781L681.991 395.597L691.511 411.865ZM620.989 430.935L630.566 447.302C639.942 463.43 656.93 472.443 674.369 472.443C677.591 472.443 680.829 472.133 684.039 471.506L689.764 481.421C684.649 487.228 680.876 494.155 678.835 501.855C675.379 514.915 677.213 528.538 684.004 540.22C684.011 540.232 684.02 540.243 684.026 540.256L700.792 568.914C710.17 585.04 727.158 594.051 744.597 594.051C747.82 594.051 751.057 593.742 754.265 593.114L759.99 603.029C754.875 608.836 751.102 615.763 749.063 623.461C745.607 636.521 747.441 650.144 754.254 661.864L763.217 677.185L701.171 713.124C696.038 716.095 693.176 721.466 693.146 726.994C693.146 727.018 693.133 727.043 693.133 727.065V806.473L673.963 806.349C660.455 806.31 647.735 811.531 638.155 821.059C632.017 827.161 627.649 834.564 625.286 842.647H615.08C608.861 821.843 589.589 806.604 566.818 806.538L533.534 806.351C520.13 806.314 507.308 811.535 497.726 821.059C491.588 827.163 487.22 834.564 484.855 842.647H474.65C468.43 821.843 449.161 806.604 426.403 806.538L406.869 806.411V727.067C406.869 727.043 406.854 727.013 406.854 726.99C406.822 721.462 403.96 716.095 398.832 713.124L335.998 676.727L344.717 661.823C351.508 650.144 353.345 636.519 349.886 623.459C347.847 615.759 344.074 608.832 338.959 603.025L344.685 593.112C347.894 593.739 351.136 594.049 354.361 594.049C371.794 594.049 388.775 585.045 398.136 568.944L414.921 540.252C414.928 540.239 414.934 540.228 414.943 540.215C421.734 528.536 423.571 514.911 420.112 501.851C418.073 494.153 414.3 487.224 409.185 481.417L414.911 471.504C418.12 472.131 421.36 472.441 424.585 472.441C442.017 472.441 458.999 463.437 468.362 447.336L478.225 430.477L541.922 467.375H541.926C541.935 467.379 541.943 467.385 541.952 467.392C544.444 468.827 547.22 469.545 550 469.545C552.789 469.545 555.579 468.821 558.076 467.375L620.989 430.935ZM550 39.1115L705.175 128.994L550 218.876L394.827 128.994L550 39.1115ZM378.793 156.947L533.887 246.784V425.48L378.793 335.641V156.947ZM450.338 414.328L440.524 431.103C438.838 434.005 436.462 436.255 433.733 437.801C435.598 430.92 432.717 423.383 426.25 419.649C419.057 415.492 409.995 417.522 405.2 424.079C404.497 419.877 405.266 415.602 407.417 411.902L417.22 395.144L450.338 414.328ZM337.191 533.51L353.998 504.781C356.159 501.066 359.436 498.402 363.159 496.946C360.014 504.332 362.794 513.072 369.924 517.188C372.462 518.656 375.233 519.352 377.968 519.352C382.278 519.352 386.482 517.603 389.555 514.421C389.63 517.753 388.809 521.051 387.093 524.007L370.3 552.711C368.612 555.613 366.238 557.863 363.509 559.409C365.374 552.528 362.495 544.989 356.026 541.255C348.835 537.098 339.771 539.128 334.976 545.685C334.271 541.485 335.04 537.21 337.191 533.51V533.51ZM283.772 626.389C285.931 622.674 289.21 620.015 292.931 618.556C289.788 625.942 292.568 634.68 299.696 638.796C302.234 640.264 305.005 640.96 307.74 640.96C312.05 640.96 316.256 639.209 319.327 636.029C319.402 639.364 318.583 642.659 316.879 645.592L308.112 660.579L274.994 641.396L283.772 626.389ZM32.2266 755.02L187.32 844.857V1023.55L32.2266 933.717V755.02ZM374.642 933.719L219.549 1023.55V844.86L261.852 820.354C269.552 815.894 272.179 806.035 267.717 798.335C263.257 790.635 253.4 788.01 245.697 792.47L203.433 816.951L48.2604 727.067L203.433 637.187L358.606 727.069L313.182 753.381C305.482 757.841 302.855 767.7 307.317 775.4C311.775 783.1 321.632 785.726 329.336 781.266L374.642 755.025V933.719ZM426.192 877.037L406.869 876.912V838.64L426.25 838.764C430.547 838.777 434.491 840.285 437.613 842.78C429.645 843.753 423.468 850.529 423.468 858.76C423.468 866.31 428.669 872.63 435.677 874.377C432.846 876.098 429.608 877.037 426.246 877.037C426.229 877.037 426.209 877.037 426.192 877.037ZM566.62 877.037C566.61 877.037 566.599 877.037 566.588 877.037L533.322 876.85C529.964 876.839 526.827 875.909 524.122 874.319C531.014 872.491 536.102 866.228 536.102 858.762C536.102 850.454 529.813 843.62 521.739 842.748C525.014 840.049 529.079 838.58 533.337 838.58H533.39L566.676 838.767C570.973 838.779 574.918 840.288 578.039 842.782C570.069 843.755 563.894 850.531 563.894 858.764C563.894 866.314 569.093 872.632 576.104 874.381C573.268 876.1 570.019 877.037 566.62 877.037V877.037ZM673.752 876.85C670.394 876.839 667.26 875.909 664.553 874.319C671.445 872.491 676.532 866.228 676.532 858.762C676.532 850.456 670.246 843.62 662.17 842.748C665.446 840.049 669.509 838.577 673.754 838.577H673.808L693.131 838.702V876.974L673.752 876.85ZM1067.77 933.719L912.68 1023.55V844.86L1067.77 755.023V933.719Z" fill="black" fill-opacity="0.5"/>
<g clip-path="url(#clip0)">
<path d="M552.048 370.188L408.722 459.749L552.048 549.311L695.382 459.749L552.048 370.188Z" fill="#2944AE"/>
<path d="M695.194 610.21L552.048 699.967V549.311L695.194 459.749V610.21Z" fill="#213993"/>
<path d="M408.722 610.21L552.048 699.967V549.311L408.722 459.749V610.21Z" fill="#6D81D5"/>
<path d="M176.088 15.7881L32.7542 105.349L176.088 194.911L319.422 105.349L176.088 15.7881Z" fill="#FCC16D"/>
<path d="M319.234 255.81L176.088 345.567V194.911L319.234 105.349V255.81Z" fill="#F98824"/>
<path d="M32.7542 255.81L176.088 345.567V194.911L32.7542 105.349V255.81Z" fill="#FCA62F"/>
<path d="M928.016 15.7881L784.682 105.349L928.016 194.911L1071.34 105.349L928.016 15.7881Z" fill="#2944AE"/>
<path d="M1071.16 255.81L928.018 345.567V194.911L1071.16 105.35V255.81Z" fill="#213993"/>
<path d="M784.682 255.81L928.016 345.567V194.911L784.682 105.349V255.81Z" fill="#6D81D5"/>
<path d="M176.088 724.588L32.7542 814.149L176.088 903.71L319.422 814.149L176.088 724.588Z" fill="#2944AE"/>
<path d="M319.234 964.61L176.088 1054.38V903.71L319.234 814.149V964.61Z" fill="#213993"/>
<path d="M32.7542 964.61L176.088 1054.38V903.71L32.7542 814.149V964.61Z" fill="#6D81D5"/>
<path d="M928.016 724.588L784.682 814.149L928.016 903.71L1071.34 814.149L928.016 724.588Z" fill="#FCC16D"/>
<path d="M1071.16 964.612L928.018 1054.38V903.712L1071.16 814.151V964.612Z" fill="#F98824"/>
<path d="M784.682 964.61L928.016 1054.38V903.71L784.682 814.149V964.61Z" fill="#FCA62F"/>
<path d="M544.088 713.445C549.06 716.376 555.476 716.318 560.374 713.249L703.521 623.484C708.092 620.618 710.868 615.606 710.868 610.21V462.06C710.982 461.3 711.055 460.533 711.055 459.749C711.055 454.345 708.272 449.325 703.692 446.459L560.358 356.898C555.28 353.722 548.831 353.722 543.746 356.898L400.412 446.459C395.889 449.292 393.048 454.451 393.048 459.782V610.21C393.048 615.606 395.832 620.626 400.403 623.492L543.737 713.257C543.852 713.323 543.974 713.371 544.088 713.445V713.445ZM567.722 671.64V557.996L679.52 488.142V601.532L567.722 671.64ZM552.048 388.67L665.724 459.7L552.048 530.82L438.298 459.749L552.048 388.67ZM424.396 488.028L536.382 557.996V671.664L424.396 601.532V488.028Z" fill="black"/>
<path d="M24.4438 269.092L167.778 358.857C172.774 361.984 179.419 361.976 184.415 358.849L327.561 269.084C332.133 266.218 334.908 261.206 334.908 255.81V107.643C335.022 106.892 335.096 106.125 335.096 105.349C335.096 99.9452 332.312 94.9165 327.732 92.0593L184.399 2.49802C167.255 -8.21243 150.643 18.3678 167.786 29.0782L289.764 105.3L176.088 176.429L62.3386 105.349L115.246 72.2874C132.397 61.5769 115.785 34.9886 98.6414 45.699L24.452 92.0593C19.9458 94.8756 17.0886 100.035 17.0886 105.349V255.81C17.0886 261.206 19.8641 266.227 24.4438 269.092V269.092ZM48.4281 133.619L50.9179 135.179L160.414 203.597V317.264L48.4281 247.132V133.619ZM191.762 317.24V203.597L303.56 133.742V247.14L191.762 317.24Z" fill="black"/>
<path d="M776.363 269.092L919.697 358.857C924.685 361.992 931.346 361.968 936.334 358.849L1079.48 269.084C1084.05 266.218 1086.83 261.206 1086.83 255.81V107.66C1086.94 106.9 1087.02 106.133 1087.02 105.349C1087.02 99.9452 1084.23 94.9246 1079.65 92.0593L936.318 2.49802C931.24 -0.677563 924.791 -0.677563 919.705 2.49802L776.379 92.0593C771.865 94.8757 769.008 100.035 769.008 105.349V255.81C769.008 261.206 771.792 266.227 776.363 269.092V269.092ZM800.355 133.619L912.342 203.597V317.264L800.355 247.132V133.619ZM943.681 317.24V203.597L1055.49 133.742V247.14L943.681 317.24ZM928.016 34.2702L1041.69 105.3L928.007 176.429L814.258 105.349L928.016 34.2702Z" fill="black"/>
<path d="M327.732 800.859L184.399 711.298C179.313 708.122 172.864 708.122 167.786 711.298L24.452 800.859C19.9458 803.676 17.0886 808.827 17.0886 814.149V964.602C17.0886 970.006 19.8641 975.026 24.4438 977.892L167.778 1067.66C172.774 1070.78 179.419 1070.78 184.423 1067.65L327.569 977.884C332.141 975.018 334.916 969.998 334.916 964.602V816.443C335.022 815.692 335.096 814.925 335.096 814.149C335.096 808.745 332.312 803.724 327.732 800.859ZM176.088 743.07L289.764 814.1L176.088 885.228L62.3386 814.149L176.088 743.07ZM48.4281 842.419L50.9179 843.978L160.414 912.396V1026.06L48.4281 955.924V842.419ZM191.762 1026.05V912.396L303.56 842.542V955.94L191.762 1026.05Z" fill="black"/>
<path d="M1079.65 800.859L936.318 711.298C931.232 708.122 924.783 708.122 919.705 711.298L776.371 800.859C771.865 803.676 769.008 808.827 769.008 814.149V964.602C769.008 970.006 771.792 975.026 776.363 977.892L919.697 1067.66C929.942 1074.04 943.681 1066.54 943.681 1054.38V912.396L1055.49 842.542V955.932L995.103 993.802C987.764 998.398 985.552 1008.07 990.156 1015.4C994.752 1022.74 1004.43 1024.95 1011.76 1020.36L1079.48 977.884C1084.05 975.018 1086.83 969.998 1086.83 964.602V816.459C1086.94 815.7 1087.02 814.925 1087.02 814.149C1087.02 808.745 1084.23 803.724 1079.65 800.859V800.859ZM928.016 743.07L1041.69 814.1L928.007 885.228L814.258 814.149L928.016 743.07ZM800.355 842.419L912.342 912.396V1026.06L800.355 955.924V842.419Z" fill="black"/>
<path d="M411.514 188.184H691.537C711.758 188.184 711.758 156.844 691.537 156.844H411.514C391.301 156.844 391.301 188.184 411.514 188.184Z" fill="black"/>
<path d="M692.582 881.973H412.56C392.347 881.973 392.347 913.321 412.56 913.321H692.582C712.803 913.321 712.803 881.973 692.582 881.973Z" fill="black"/>
<path d="M911.487 441.317V628.154C911.487 636.807 918.499 643.82 927.152 643.82C935.814 643.82 942.826 636.807 942.826 628.154V441.317C942.826 421.096 911.487 421.096 911.487 441.317V441.317Z" fill="black"/>
<path d="M161.271 442.01V628.847C161.271 637.5 168.292 644.521 176.945 644.521C185.607 644.521 192.619 637.5 192.619 628.847V442.01C192.619 421.789 161.271 421.789 161.271 442.01Z" fill="black"/>
<path d="M774.11 326.244L703.48 372.972C690.737 381.397 697.096 401.715 712.141 401.715C715.105 401.715 718.109 400.875 720.77 399.111L791.4 352.384C808.258 341.232 790.968 315.085 774.11 326.244Z" fill="black"/>
<path d="M383.334 399.111C385.995 400.875 388.991 401.715 391.962 401.715C407 401.715 413.367 381.397 400.624 372.972L329.994 326.244C313.136 315.085 295.846 341.232 312.703 352.384L383.334 399.111Z" fill="black"/>
<path d="M321.365 756.964C324.336 756.964 327.332 756.124 329.994 754.36L400.624 707.641C417.49 696.489 400.191 670.334 383.334 681.493L312.704 728.221C299.96 736.646 306.328 756.964 321.365 756.964V756.964Z" fill="black"/>
<path d="M703.48 707.633L774.11 754.36C776.771 756.123 779.767 756.964 782.739 756.964C797.776 756.964 804.143 736.645 791.4 728.221L720.77 681.493C703.912 670.334 686.614 696.481 703.48 707.633Z" fill="black"/>
</g>
<defs>
<clipPath id="clip0">
<rect width="1070" height="1070" fill="white" transform="translate(15)"/>
</clipPath>
</defs>
</svg>
