<svg width="829" height="852" viewBox="0 0 829 852" fill="none" xmlns="http://www.w3.org/2000/svg">
<path d="M250.616 99.9756V272.827L400.311 359.259V186.401L250.616 99.9756Z" fill="#8892B0"/>
<path d="M550.006 99.9756L400.311 13.5498L250.616 99.9756L400.311 186.401L550.006 99.9756Z" fill="#64FFDA"/>
<path d="M400.311 186.401V359.259L550.006 272.827V99.9756L400.311 186.401Z" fill="#CCD6F6"/>
<path d="M788.177 511.383L638.44 425.031L488.788 511.536L638.525 597.888L788.177 511.383Z" fill="#64FFDA"/>
<path d="M638.611 770.74L788.263 684.241L788.177 511.383L638.525 597.888L638.611 770.74Z" fill="#CCD6F6"/>
<path d="M638.525 597.888L488.788 511.536L488.873 684.387L638.611 770.74L638.525 597.888Z" fill="#8892B0"/>
<path d="M161.432 769.91L311.127 683.484V510.626L161.432 597.058V769.91Z" fill="#CCD6F6"/>
<path d="M11.731 510.626V683.484L161.432 769.91V597.058L11.731 510.626Z" fill="#8892B0"/>
<path d="M161.432 597.058L311.127 510.626L161.432 424.2L11.731 510.626L161.432 597.058Z" fill="#64FFDA"/>
<path d="M297.546 272.827V127.069L250.616 99.9756V272.827L400.311 359.259V332.159L297.546 272.827Z" fill="#233554"/>
<path d="M297.546 99.9756L423.779 27.0935L400.311 13.5498L250.616 99.9756L400.311 186.401L423.779 172.852L297.546 99.9756Z" fill="#898890"/>
<path d="M447.241 186.401L550.006 127.069V99.9756L400.311 186.401V359.259L447.241 332.159V186.401Z" fill="#57565C"/>
<path d="M535.718 511.536L661.932 438.58L638.44 425.031L488.788 511.536L638.525 597.888L661.963 584.338L535.718 511.536Z" fill="#898890"/>
<path d="M685.455 597.888L788.19 538.507L788.177 511.383L638.525 597.888L638.611 770.74L685.529 743.622L685.455 597.888Z" fill="#57565C"/>
<path d="M535.803 684.387L535.73 538.605L488.788 511.536L488.873 684.387L638.611 770.74L638.599 743.671L535.803 684.387Z" fill="#233554"/>
<path d="M208.362 597.058L311.127 537.726V510.626L161.432 597.058V769.91L208.362 742.816V597.058Z" fill="#57565C"/>
<path d="M58.6609 683.484V537.726L11.731 510.626V683.484L161.432 769.91V742.816L58.6609 683.484Z" fill="#233554"/>
<path d="M58.6609 510.626L184.894 437.75L161.432 424.2L11.731 510.626L161.432 597.058L184.894 583.508L58.6609 510.626Z" fill="#898890"/>
<path d="M531.934 266.504C524.53 264.49 516.901 264.441 509.662 266.29L485.345 223.792L464.978 235.443L489.294 277.948C484.033 283.246 480.2 289.85 478.186 297.253C475.116 308.539 476.624 320.343 482.434 330.493L494.635 351.825C500.439 361.975 509.857 369.257 521.143 372.333C524.963 373.37 528.851 373.889 532.709 373.889C536.322 373.889 539.911 373.431 543.414 372.54L548.199 380.896C534.723 394.531 531.354 416.003 541.327 433.435L553.528 454.767C559.338 464.917 568.75 472.198 580.035 475.269C583.856 476.312 587.744 476.825 591.602 476.825C595.215 476.825 598.81 476.373 602.307 475.476L626.801 518.292L647.174 506.641L622.668 463.812C636.145 450.183 639.514 428.705 629.541 411.279L617.34 389.948C607.367 372.516 587.146 364.539 568.567 369.244L563.782 360.889C569.049 355.585 572.876 348.987 574.89 341.583C577.96 330.298 576.453 318.488 570.642 308.337L558.441 287.012C552.637 276.855 543.219 269.574 531.934 266.504V266.504ZM596.967 401.599L609.174 422.931C612.567 428.864 612.628 435.809 609.955 441.583L603.131 429.663L582.764 441.315L589.594 453.247C588.458 453.137 587.323 452.93 586.2 452.625C580.963 451.202 576.593 447.821 573.895 443.109L561.694 421.783C558.301 415.845 558.234 408.899 560.913 403.125L567.908 415.35L588.281 403.699L581.281 391.467C587.616 392.09 593.573 395.667 596.967 401.599V401.599ZM544.238 326.727L523.871 338.379L530.695 350.311C529.559 350.201 528.424 349.994 527.301 349.689C522.064 348.26 517.694 344.885 515.002 340.173L502.802 318.842C500.104 314.13 499.402 308.649 500.83 303.412C501.135 302.289 501.532 301.208 502.008 300.171L509.015 312.415L529.382 300.757L522.388 288.531C528.723 289.148 534.68 292.725 538.074 298.657L550.275 319.989C552.972 324.701 553.674 330.176 552.246 335.419C551.941 336.542 551.544 337.622 551.068 338.66L544.238 326.727Z" fill="black"/>
<path d="M173.822 518.292L198.328 475.464C201.855 476.355 205.45 476.794 209.021 476.794C224.225 476.794 239.02 468.878 247.095 454.761L259.302 433.435C265.106 423.285 266.614 411.475 263.544 400.189C261.53 392.786 257.697 386.188 252.435 380.884L257.22 372.528C260.754 373.419 264.343 373.859 267.914 373.859C283.118 373.859 297.913 365.942 305.994 351.825L318.195 330.493C328.168 313.068 324.799 291.595 311.322 277.96L335.651 235.443L315.283 223.792L290.955 266.309C272.375 261.597 252.155 269.58 242.181 287.006L229.98 308.337C220.007 325.769 223.376 347.241 236.853 360.87L232.068 369.232C224.829 367.383 217.2 367.426 209.796 369.44C198.511 372.51 189.099 379.791 183.289 389.941L171.088 411.273C161.115 428.705 164.484 450.177 177.954 463.812L153.455 506.635L173.822 518.292ZM248.376 335.419C246.954 330.176 247.65 324.701 250.348 319.989L262.549 298.657C265.942 292.725 271.899 289.154 278.241 288.531L271.246 300.763L291.614 312.415L298.608 300.183C301.288 305.963 301.227 312.909 297.827 318.842L285.626 340.173C282.227 346.106 276.276 349.683 269.934 350.299L276.752 338.385L256.384 326.727L249.561 338.66C249.078 337.622 248.682 336.542 248.376 335.419ZM191.455 422.931L203.656 401.599C206.354 396.887 210.718 393.506 215.955 392.084C217.078 391.779 218.213 391.571 219.348 391.461L212.347 403.699L232.715 415.35L239.709 403.125C242.389 408.899 242.328 415.845 238.934 421.783L226.727 443.109C223.334 449.048 217.377 452.618 211.041 453.241L217.859 441.321L197.491 429.669L190.674 441.589C187.994 435.809 188.055 428.864 191.455 422.931V422.931Z" fill="black"/>
<path d="M518.103 641.76L567.072 641.62L567.004 618.152L518.018 618.292C512.836 599.884 495.892 586.359 475.867 586.359H475.739L451.166 586.432C431.085 586.487 414.154 600.128 409.07 618.604L399.438 618.634C397.43 611.438 393.585 604.846 388.141 599.438C379.877 591.223 368.921 586.7 357.269 586.7H357.141L332.568 586.768C320.874 586.804 309.894 591.388 301.648 599.683C296.234 605.127 292.426 611.737 290.46 618.945L241.132 619.086L241.199 642.548L290.54 642.407C295.721 660.822 312.671 674.341 332.697 674.341H332.819L357.391 674.268C369.086 674.237 380.072 669.647 388.318 661.359C393.726 655.914 397.534 649.304 399.506 642.096L409.119 642.065C411.127 649.261 414.978 655.853 420.416 661.267C428.68 669.482 439.636 673.999 451.288 673.999H451.416L475.989 673.932C487.683 673.895 498.669 669.312 506.915 661.017C512.323 655.579 516.132 648.969 518.103 641.76V641.76ZM371.68 644.812C367.853 648.663 362.756 650.787 357.33 650.806L332.758 650.873H332.697C325.885 650.873 319.836 647.504 316.15 642.334L329.883 642.297L329.816 618.829L316.064 618.872C316.724 617.938 317.462 617.053 318.286 616.229C322.113 612.378 327.209 610.254 332.635 610.236L357.208 610.162H357.269C362.677 610.162 367.761 612.262 371.594 616.077C372.424 616.895 373.169 617.773 373.834 618.707L359.729 618.744L359.796 642.212L373.901 642.169C373.242 643.103 372.498 643.988 371.68 644.812V644.812ZM475.922 650.464L451.349 650.537H451.288C445.88 650.537 440.796 648.438 436.963 644.629C436.139 643.805 435.388 642.926 434.729 641.998L448.474 641.956L448.407 618.494L434.674 618.53C438.342 613.33 444.397 609.918 451.233 609.894L475.806 609.827H475.867C482.678 609.827 488.721 613.196 492.413 618.365L478.326 618.408L478.394 641.87L492.493 641.833C491.833 642.767 491.095 643.646 490.271 644.476C486.444 648.322 481.348 650.452 475.922 650.464V650.464Z" fill="black"/>
<path d="M412.042 323.132V193.182L524.585 128.204L512.848 107.886L400.311 172.858L287.775 107.886L276.038 128.204L388.58 193.182V323.132H412.042Z" fill="black"/>
<path d="M751.031 519.312L638.525 584.344L525.94 519.415L514.215 539.74L626.801 604.669L626.862 734.619L650.323 734.613L650.269 604.663L762.775 539.624L751.031 519.312Z" fill="black"/>
<path d="M173.169 733.783V603.833L285.706 538.861L273.975 518.542L161.438 583.514L48.8831 518.536L37.1521 538.861L149.701 603.833V733.783H173.169Z" fill="black"/>
<path d="M262.347 106.75L400.311 27.0935L538.275 106.75V252.765H561.743V93.2007L400.311 0L238.885 93.2007V252.765H262.347V106.75Z" fill="black"/>
<path d="M400.311 372.803L465.118 335.388L453.387 315.07L400.311 345.709L347.223 315.057L335.492 335.376L400.311 372.803Z" fill="black"/>
<path d="M161.432 756.366L23.468 676.709V517.401L151.63 443.408L139.899 423.083L0 503.857V690.259L161.432 783.459L310.419 697.443L298.688 677.118L161.432 756.366Z" fill="black"/>
<path d="M322.858 570.966V503.857L259.875 467.493L248.145 487.817L299.396 517.401V570.966H322.858Z" fill="black"/>
<path d="M799.908 504.608L660.706 424.329L648.981 444.653L776.453 518.164L776.532 677.472L638.605 757.196L503.729 679.413L492.004 699.738L638.617 784.29L800 691.01L799.908 504.608Z" fill="black"/>
<path d="M541.028 467.786L477.051 504.767L477.081 568.146L500.549 568.134L500.519 518.304L552.771 488.098L541.028 467.786Z" fill="black"/>
<path d="M326.672 114.948L314.911 94.6411L335.211 82.8796L346.979 103.18L326.672 114.948ZM465.924 110.132L400.323 72.2595L394.348 75.7263L382.581 55.4199L400.299 45.1538L477.661 89.8132L465.924 110.132ZM360.51 95.3369L348.749 75.0305L369.049 63.269L380.811 83.5693L360.51 95.3369Z" fill="white"/>
<path d="M683.557 713.141L671.814 692.828L737.396 654.919L737.384 648.01L760.846 647.961L760.889 668.439L683.557 713.141ZM737.347 632.367L737.299 608.905L760.76 608.85L760.815 632.318L737.347 632.367ZM737.262 593.262L737.213 569.794L760.681 569.745L760.73 593.207L737.262 593.262Z" fill="white"/>
<path d="M124.67 716.895L39.1113 667.688V643.146H62.5732V654.12L136.365 696.558L124.67 716.895ZM39.1113 627.502V604.034H62.5732V627.496L39.1113 627.502ZM62.5732 588.391H39.1113V564.923H62.5732V588.391Z" fill="white"/>
<path d="M601.956 387.399C605.362 377.406 608.213 367.216 610.492 356.899C610.683 356.026 608.959 353.059 606.183 349.005C589.262 324.288 565.181 305.337 537.318 294.332L461.653 264.445C425.878 250.317 386.068 250.346 350.317 264.526L274.784 294.476C246.95 305.516 222.91 324.496 206.023 349.219C203.247 353.284 201.518 356.257 201.715 357.136C204.294 368.777 207.619 380.251 211.633 391.482C250.53 500.105 343.556 552.807 343.556 552.807L468.87 552.737C468.87 552.737 561.717 499.995 600.539 391.47C601.019 390.117 601.493 388.758 601.956 387.399Z" fill="#0A192F"/>
<path d="M293.452 298.663L279.127 298.675C273.94 298.675 269.163 300.433 265.352 303.382C258.736 308.5 255.838 317.105 257.336 325.335L262.981 356.309C267.364 379.262 293.527 368.754 293.527 368.754L293.452 298.663Z" fill="#EFD0AF"/>
<path d="M519.894 298.536L534.219 298.524C539.406 298.524 544.189 300.271 548 303.215C554.621 308.327 557.53 316.926 556.038 325.161L550.429 356.136C546.08 379.1 519.9 368.621 519.9 368.621L519.894 298.536Z" fill="#FAE0C1"/>
<path d="M451.642 611.927L500.59 565.894C509.068 557.925 504.887 543.71 493.454 541.593C480.153 538.927 470.576 523.504 470.564 509.937L470.53 449.48L406.089 449.521L341.642 449.555L341.677 510.012C341.683 523.579 332.123 539.014 318.828 541.691C307.389 543.825 303.231 558.046 311.709 566.004L360.715 611.979C386.287 635.967 426.098 635.944 451.642 611.927Z" fill="#FAE0C1"/>
<path d="M493.454 541.593C480.147 538.927 470.57 523.504 470.564 509.937L470.53 449.486L419.615 449.515L419.644 509.937C419.656 523.504 429.233 538.927 442.534 541.593C453.973 543.71 458.148 557.925 449.676 565.894L400.722 611.927C394.713 617.577 387.912 621.903 380.689 624.893C404.175 634.637 432.089 630.311 451.636 611.927L500.59 565.894C509.068 557.93 504.887 543.71 493.454 541.593Z" fill="#EFD0AF"/>
<path d="M485.999 169.781C467.36 152.571 441.169 137.552 406.58 137.159C371.992 137.593 345.817 152.64 327.202 169.874C303.456 191.856 290.601 224.489 290.618 258.159L290.624 262.224H290.653L290.722 379.58C291.393 412.307 313.993 434.953 333.632 454.402C351.705 472.294 372.194 493.432 406.788 493.825C441.371 493.391 461.843 472.237 479.892 454.315C499.509 434.843 522.086 412.174 522.722 379.447L522.653 262.091H522.687L522.681 258.02C522.664 224.356 509.774 191.74 485.999 169.781V169.781Z" fill="#FAE0C1"/>
<path d="M522.653 262.091H522.681V258.026C522.658 224.356 509.768 191.74 485.999 169.781C481.413 165.548 476.365 161.442 470.853 157.66V262.091L470.825 183.175L470.888 379.447C470.252 412.174 447.675 434.849 428.059 454.321C415.035 467.246 400.757 481.854 380.828 489.158C388.549 491.986 397.113 493.715 406.783 493.831C441.371 493.397 461.838 472.237 479.887 454.321C499.503 434.849 522.08 412.174 522.716 379.447L522.653 262.091Z" fill="#EFD0AF"/>
<path d="M618.334 527.292L516.962 507.993C495.408 503.887 472.947 507.19 453.921 518.102C440.267 525.927 421.761 531.201 412.531 533.532C408.772 534.48 404.851 534.463 401.098 533.485C391.926 531.097 373.547 525.73 359.726 517.929C340.538 507.103 318.25 503.124 296.638 507.404C256.105 515.43 203.16 525.909 203.16 525.909C189.252 528.662 184.099 532.016 180.67 536.88L89.6617 692.734C80.6111 708.233 79.6049 727.149 86.9552 743.527L123.689 825.357C126.934 834.662 135.718 840.902 145.572 840.896L668.247 840.596C678.177 840.59 686.996 834.258 690.177 824.848L725.939 742.775C732.989 726.6 731.936 708.042 723.112 692.763L633 536.787C629.535 531.825 624.273 528.419 618.334 527.292V527.292Z" fill="#112240"/>
<path d="M690.177 824.848L725.939 742.775C732.989 726.6 731.936 708.042 723.111 692.763L632.999 536.787C629.535 531.825 624.273 528.419 618.334 527.292L516.962 507.993C495.408 503.887 472.947 507.184 453.921 518.096C445.367 523.001 434.906 526.904 426.017 529.709C426.011 529.709 426.011 529.709 426.011 529.709C428.689 529.992 553.447 558.283 553.447 558.283C559.392 559.417 564.649 562.823 568.113 567.785L658.225 708.95C667.056 724.229 668.103 742.787 661.053 758.962L625.476 840.619L668.247 840.596C678.177 840.59 686.996 834.258 690.177 824.848V824.848Z" fill="#233554"/>
<path d="M649.117 826.364L164.83 826.635L136.811 568.565C135.903 560.209 142.444 552.922 150.841 552.916L662.794 552.621C671.197 552.616 677.743 559.902 676.847 568.259L649.117 826.364Z" fill="#EDEDED"/>
<path d="M662.794 552.621L626.204 552.645L596.792 826.364H649.117L676.847 568.259C677.743 559.902 671.197 552.616 662.794 552.621Z" fill="#D6D6D6"/>
<path d="M670.861 840.896H143.109C135.377 840.902 129.102 834.639 129.096 826.907L129.091 816.787C129.091 809.049 135.354 802.78 143.086 802.774L670.838 802.474C678.57 802.474 684.839 808.737 684.845 816.469L684.851 826.589C684.851 834.321 678.587 840.891 670.861 840.896Z" fill="#D6D6D6"/>
<path d="M684.845 816.469C684.839 808.737 678.57 802.474 670.832 802.479L632.82 802.497L632.832 840.619L670.856 840.896C678.588 840.891 684.851 834.321 684.851 826.589L684.845 816.469Z" fill="#BEBEBE"/>
<path d="M610.017 358.992C610.179 358.298 610.336 357.599 610.492 356.899V356.893C610.526 355.563 610.538 354.233 610.538 352.897C610.486 259.662 499.214 105.734 405.886 105.104C312.565 105.838 201.466 259.893 201.524 353.134C201.524 354.302 201.535 355.465 201.564 356.627C201.634 356.847 201.686 357.02 201.709 357.136C201.848 357.743 201.986 358.35 202.119 358.958C210.482 328.516 317.249 304.493 406.002 304.325C495.021 304.394 602.187 328.435 610.017 358.992Z" fill="#112240"/>
<path d="M405.886 105.104C397.009 105.173 387.976 106.63 378.885 109.29C456.095 131.873 536.96 241.162 553.401 324.346C584.56 333.726 606.623 345.749 610.017 358.992C610.179 358.298 610.336 357.604 610.492 356.899C610.492 356.899 610.492 356.899 610.492 356.893C610.526 355.569 610.538 354.233 610.538 352.903C610.486 259.662 499.214 105.734 405.886 105.104Z" fill="#233554"/>
<path d="M732.734 687.205L709.163 646.406C706.092 641.091 699.302 639.275 693.994 642.346C688.685 645.411 686.863 652.206 689.934 657.515L713.506 698.315C720.538 710.488 721.382 725.449 715.767 738.339L689.188 799.333C688.997 799.125 683.908 791.654 670.838 791.376H664.049L687.892 569.444C688.656 562.331 686.354 555.201 681.572 549.88C676.795 544.566 669.953 541.518 662.794 541.518L424.913 541.657C435.264 538.603 448.617 533.942 459.449 527.731C475.815 518.345 495.501 515.205 514.886 518.9L585.977 532.433C591.997 533.578 597.815 529.628 598.96 523.602C600.111 517.576 596.155 511.764 590.129 510.619L545.999 502.216C575.383 469.906 597.214 433.982 611.006 395.183C615.668 382.067 621.653 367.002 621.647 352.891C621.618 305.476 594.906 242.064 551.926 187.408C505.488 128.357 452.29 94.3123 405.973 94H405.811C359.494 94.3643 306.331 128.473 259.962 187.576C217.046 242.278 190.403 305.719 190.426 353.146C190.443 367.048 196.55 382.211 201.159 395.189C214.941 433.947 236.743 469.842 266.092 502.135L224.251 510.417C218.237 511.608 214.328 517.449 215.519 523.463C216.71 529.478 222.557 533.375 228.565 532.201L298.801 518.293C317.417 514.609 337.114 517.911 354.278 527.592C365.353 533.844 378.856 538.58 389.179 541.674L150.847 541.807C143.693 541.813 136.852 544.866 132.075 550.193C127.304 555.519 125.008 562.649 125.777 569.763L149.875 791.665L143.086 791.671C131.329 791.671 124.748 799.646 124.464 799.958L97.0929 738.981C91.2231 725.906 92.0327 710.708 99.2616 698.332L124.007 655.948C127.101 650.656 125.314 643.855 120.017 640.761C114.726 637.667 107.925 639.454 104.831 644.752L80.0849 687.13C69.2474 705.688 68.0329 728.468 76.8348 748.072L113.39 829.504C116.304 837.473 121.978 843.996 129.461 847.975C133.492 850.595 138.187 852 143.12 852H670.873C676.066 851.994 681.022 850.126 685.192 847.212C692.357 843.135 697.776 836.675 700.534 828.897L736.129 747.211C744.544 727.889 743.277 705.457 732.734 687.205V687.205ZM520.091 497.283C520.091 497.283 504.771 492.986 481.674 496.624L481.65 468.206C483.287 466.604 487.717 462.197 487.717 462.197C507.495 442.564 532.01 418.234 533.744 382.084C538.648 381.934 543.917 380.829 548.717 377.863C553.314 375.017 559.242 369.304 561.364 358.119L564.684 339.769C586.122 347.658 595.618 355.158 598.446 359.871C597.283 364.735 594.623 374.965 590.077 387.752C575.851 427.776 552.314 464.603 520.091 497.283V497.283ZM341.451 446.508C323.177 428.412 302.467 407.9 301.831 379.459L301.797 325.503C334.899 319.164 372.235 315.492 406.002 315.428C440.267 315.452 478.152 319.182 511.589 325.641L511.618 379.337C511.017 407.778 490.331 428.314 472.074 446.438C472.074 446.438 438.399 482.721 406.783 482.721C375.728 482.721 341.451 446.508 341.451 446.508V446.508ZM279.613 360.01C276.409 360.01 274.379 356.754 273.911 354.314L269.99 332.801C272.135 332.217 278.606 330.557 279.595 330.32L279.613 360.01ZM533.82 359.86L533.802 330.505C534.45 330.667 540.91 332.327 543.344 332.997C543.344 332.997 539.533 354.025 539.528 354.071C538.938 357.35 537.313 359.576 533.82 359.86ZM405.904 116.207C484.467 116.814 582.27 241.006 597.428 330.47C584.115 322.594 565.337 315.567 541.187 309.46C501.122 299.328 450.59 293.256 405.99 293.221C361.571 293.308 311.183 299.403 271.198 309.524C246.886 315.677 227.993 322.756 214.628 330.684C229.705 241.179 327.352 116.907 405.904 116.207ZM291.832 497.034C259.731 464.418 236.28 427.678 222.088 387.752C217.56 375.023 214.906 364.833 213.738 359.941C216.739 355.129 226.588 347.484 248.644 339.492L252.085 358.385C254.196 369.471 260.13 375.191 264.739 378.03C269.539 380.991 274.807 382.09 279.711 382.229C281.492 418.379 306.024 442.679 325.825 462.29C325.825 462.29 329.388 465.817 330.556 466.968L330.573 495.999C311.113 492.339 291.832 497.034 291.832 497.034V497.034ZM352.78 502.268L352.775 486.411C366.879 496.676 384.096 504.674 406.667 504.928H406.794H406.927C428.782 504.657 445.616 497.127 459.455 487.319L459.461 503.014C455.673 504.599 451.977 506.415 448.404 508.468C435.559 515.829 417.146 520.919 409.819 522.763C407.887 523.249 405.834 523.243 403.897 522.74C396.616 520.843 378.266 515.639 365.191 508.259C361.16 505.981 357.014 503.986 352.78 502.268V502.268ZM147.851 567.363C147.735 566.258 148.198 565.483 148.609 565.02C149.019 564.564 149.742 564.02 150.858 564.02L662.811 563.725C663.922 563.725 664.644 564.269 665.055 564.725C665.466 565.182 665.934 565.963 665.813 567.068L641.709 791.388L172.209 791.659L147.851 567.363ZM670.861 829.492C670.861 829.492 143.109 829.793 143.103 829.793C141.519 829.793 140.212 828.48 140.212 826.901C140.212 826.901 140.206 816.787 140.206 816.781C140.206 815.249 141.501 813.884 143.097 813.884C143.097 813.884 670.85 813.583 670.856 813.583C672.44 813.583 673.747 814.896 673.747 816.475L673.753 826.595C673.753 828.191 672.457 829.492 670.861 829.492V829.492Z" fill="black"/>
<g clip-path="url(#clip0)">
<path d="M363.651 762.206C361.58 762.206 359.901 763.885 359.901 765.956V805.25C359.901 807.321 361.58 809 363.651 809C365.723 809 367.401 807.321 367.401 805.25V765.956C367.401 763.885 365.722 762.206 363.651 762.206Z" fill="#64FFDA"/>
<path d="M524.48 553H323.417C321.345 553 319.667 554.678 319.667 556.75C319.667 558.822 321.345 560.5 323.417 560.5H524.48C526.145 560.5 527.5 561.855 527.5 563.521V568.458C527.5 570.124 526.145 571.479 524.48 571.479H289.521C287.855 571.479 286.5 570.124 286.5 568.458V563.521C286.5 561.855 287.855 560.5 289.521 560.5H308.424C310.495 560.5 312.174 558.822 312.174 556.75C312.174 554.678 310.495 553 308.424 553H289.521C283.72 553 279 557.719 279 563.521V568.458C279 574.26 283.72 578.979 289.521 578.979H301.192V633.796H299.521C293.72 633.796 289 638.515 289 644.316V649.254C289 655.055 293.72 659.774 299.521 659.774H324.412V704.59H314.521C308.72 704.59 304 709.31 304 715.111V720.048C304 725.85 308.72 730.57 314.521 730.57H327.016V805.25C327.016 807.322 328.695 809 330.766 809C332.838 809 334.516 807.322 334.516 805.25V785.664H342.826C344.898 785.664 346.576 783.986 346.576 781.914C346.576 779.843 344.898 778.164 342.826 778.164H334.516V767.299H337.826C339.898 767.299 341.576 765.62 341.576 763.549C341.576 761.477 339.898 759.799 337.826 759.799H334.516V748.934H342.826C344.898 748.934 346.576 747.256 346.576 745.184C346.576 743.113 344.898 741.434 342.826 741.434H334.516V730.57H359.901V750.964C359.901 753.035 361.58 754.714 363.651 754.714C365.723 754.714 367.401 753.035 367.401 750.964V730.57H386.808V805.25C386.808 807.322 388.486 809 390.558 809C392.629 809 394.308 807.322 394.308 805.25V785.664H402.618C404.689 785.664 406.368 783.986 406.368 781.914C406.368 779.843 404.689 778.164 402.618 778.164H394.308V767.299H397.618C399.689 767.299 401.368 765.62 401.368 763.549C401.368 761.477 399.689 759.799 397.618 759.799H394.308V748.934H402.618C404.689 748.934 406.368 747.256 406.368 745.184C406.368 743.113 404.689 741.434 402.618 741.434H394.308V730.57H419.693V805.25C419.693 807.322 421.371 809 423.443 809C425.514 809 427.193 807.322 427.193 805.25V730.57H446.6V805.25C446.6 807.322 448.278 809 450.35 809C452.421 809 454.1 807.322 454.1 805.25V785.664H462.409C464.48 785.664 466.159 783.986 466.159 781.914C466.159 779.843 464.48 778.164 462.409 778.164H454.1V767.299H457.409C459.48 767.299 461.159 765.62 461.159 763.549C461.159 761.477 459.48 759.799 457.409 759.799H454.1V748.934H462.409C464.48 748.934 466.159 747.256 466.159 745.184C466.159 743.113 464.48 741.434 462.409 741.434H454.1V730.57H479.484V805.25C479.484 807.322 481.163 809 483.234 809C485.306 809 486.984 807.322 486.984 805.25V730.57H499.48C505.281 730.57 510.001 725.85 510.001 720.048V715.111C510.001 709.31 505.281 704.59 499.48 704.59H489.589V691.529C489.589 689.458 487.91 687.779 485.839 687.779C483.767 687.779 482.089 689.458 482.089 691.529V704.59H471.239V659.774H482.089V676.535C482.089 678.607 483.767 680.285 485.839 680.285C487.91 680.285 489.589 678.607 489.589 676.535V659.774H514.48C520.281 659.774 525.001 655.055 525.001 649.254V644.316C525.001 638.515 520.281 633.796 514.48 633.796H512.809V578.979H524.48C530.281 578.979 535 574.26 535 568.458V563.521C535 557.719 530.281 553 524.48 553V553ZM466.367 633.796V617.52H486.96V633.796H466.367ZM486.96 610.02H466.367V602.754H486.96V610.02ZM486.96 595.254H466.367V578.979H486.96V595.254ZM458.867 578.979V633.796H448.018V578.979H458.867ZM419.925 633.796V617.52H440.518V633.796H419.925ZM419.925 602.754H440.518V610.02H419.925V602.754ZM440.518 595.254H419.925V578.979H440.518V595.254H440.518ZM412.425 578.979V633.796H401.576V578.979H412.425ZM373.483 633.796V617.52H394.076V633.796H373.483ZM373.483 602.754H394.076V610.02H373.483V602.754ZM394.076 595.254H373.482V578.979H394.076V595.254ZM365.983 578.979V633.796H355.134V578.979H365.983ZM327.041 633.796V617.52H347.634V633.796H327.041ZM327.041 602.754H347.634V610.02H327.041V602.754ZM347.634 595.254H327.041V578.979H347.634V595.254ZM308.692 578.979H319.541V633.796H308.692V578.979ZM331.912 659.774H342.762V704.59H331.912V659.774ZM370.854 659.774V671.049H350.261V659.774H370.854ZM417.296 659.774V671.049H396.704V659.774H417.296ZM463.738 685.815H443.146V678.549H463.738V685.815ZM435.646 704.59H424.796V659.774H435.646V704.59ZM396.704 704.59V693.315H417.296V704.59H396.704ZM417.296 685.815H396.704V678.549H417.296V685.815ZM389.204 674.789C389.204 674.792 389.203 674.796 389.203 674.799C389.203 674.802 389.204 674.806 389.204 674.809V689.555C389.204 689.558 389.203 689.561 389.203 689.564C389.203 689.567 389.204 689.571 389.204 689.574V704.589H378.354V659.773H389.204V674.789ZM350.261 704.59V693.315H370.854V704.59H350.261ZM370.854 685.815H350.261V678.549H370.854V685.815ZM499.48 712.09C501.145 712.09 502.5 713.445 502.5 715.111V720.048C502.5 721.714 501.145 723.07 499.48 723.07H314.521C312.855 723.07 311.5 721.714 311.5 720.048V715.111C311.5 713.445 312.855 712.09 314.521 712.09H499.48ZM443.146 704.59V693.315H463.738V704.59H443.146ZM463.738 671.049H443.146V659.774H463.738V671.049ZM517.5 644.316V649.254C517.5 650.919 516.145 652.274 514.48 652.274H299.521C297.855 652.274 296.5 650.919 296.5 649.254V644.316C296.5 642.651 297.855 641.296 299.521 641.296H514.48C516.145 641.296 517.5 642.651 517.5 644.316ZM505.309 633.796H494.46V578.979H505.309V633.796Z" fill="#64FFDA"/>
</g>
<defs>
<clipPath id="clip0">
<rect width="256" height="256" fill="white" transform="translate(279 553)"/>
</clipPath>
</defs>
</svg>
